<svg xmlns="http://www.w3.org/2000/svg" width="256" height="256" viewBox="0 0 256 256" role="img" aria-label="Net Schedule icon">
  <title>Net Schedule Icon</title>
  <desc>Calendar and radio waves icon in DAC-ARES style.</desc>

  <circle cx="128" cy="128" r="118" fill="#ffffff" stroke="#d62828" stroke-width="10"/>
  <circle cx="128" cy="128" r="105" fill="none" stroke="#1f3b73" stroke-width="3" opacity="0.18"/>

  <rect x="56" y="68" width="144" height="116" rx="10" fill="#f8fafc" stroke="#1f3b73" stroke-width="6"/>
  <rect x="56" y="68" width="144" height="30" rx="10" fill="#1f3b73"/>
  <line x1="92" y1="54" x2="92" y2="82" stroke="#d62828" stroke-width="8" stroke-linecap="round"/>
  <line x1="164" y1="54" x2="164" y2="82" stroke="#d62828" stroke-width="8" stroke-linecap="round"/>

  <line x1="80" y1="116" x2="176" y2="116" stroke="#1f3b73" stroke-width="3" opacity="0.45"/>
  <line x1="80" y1="140" x2="176" y2="140" stroke="#1f3b73" stroke-width="3" opacity="0.45"/>
  <line x1="104" y1="104" x2="104" y2="170" stroke="#1f3b73" stroke-width="3" opacity="0.35"/>
  <line x1="128" y1="104" x2="128" y2="170" stroke="#1f3b73" stroke-width="3" opacity="0.35"/>
  <line x1="152" y1="104" x2="152" y2="170" stroke="#1f3b73" stroke-width="3" opacity="0.35"/>

  <rect x="82" y="118" width="20" height="20" rx="4" fill="#d62828"/>
  <rect x="106" y="118" width="20" height="20" rx="4" fill="#1f3b73" opacity="0.16"/>
  <rect x="130" y="118" width="20" height="20" rx="4" fill="#1f3b73" opacity="0.16"/>
  <rect x="154" y="118" width="20" height="20" rx="4" fill="#1f3b73" opacity="0.16"/>

  <circle cx="128" cy="182" r="10" fill="#1f3b73"/>
  <path d="M112 182c0-9 7-16 16-16s16 7 16 16" fill="none" stroke="#d62828" stroke-width="5" stroke-linecap="round"/>
  <path d="M100 182c0-15 12-28 28-28s28 13 28 28" fill="none" stroke="#d62828" stroke-width="5" stroke-linecap="round"/>
  <path d="M88 182c0-22 18-40 40-40s40 18 40 40" fill="none" stroke="#1f3b73" stroke-width="5" stroke-linecap="round"/>

  <text x="128" y="228" text-anchor="middle" font-family="Arial, Helvetica, sans-serif" font-size="20" font-weight="700" fill="#1f3b73">NET SCHEDULE</text>
</svg>
