<svg xmlns="http://www.w3.org/2000/svg" width="256" height="256" viewBox="0 0 256 256">
  <rect width="256" height="256" rx="28" fill="#3e4630"/>
  <g fill="none" stroke="#d8c2a1" stroke-width="10" stroke-linecap="round" stroke-linejoin="round">
    <path d="M128 48 L88 208"/>
    <path d="M128 48 L168 208"/>
    <path d="M96 176 H160"/>
    <path d="M104 144 H152"/>
    <path d="M112 112 H144"/>
    <path d="M128 48 V28"/>
    <path d="M128 28 C112 28 98 36 90 48"/>
    <path d="M128 28 C144 28 158 36 166 48"/>
    <path d="M128 62 C104 62 84 74 72 94"/>
    <path d="M128 62 C152 62 172 74 184 94"/>
    <path d="M128 80 C110 80 96 88 88 102"/>
    <path d="M128 80 C146 80 160 88 168 102"/>
  </g>
  <circle cx="128" cy="220" r="8" fill="#d8c2a1"/>
</svg>