<?xml version="1.0" encoding="UTF-8"?>
<svg xmlns="http://www.w3.org/2000/svg" width="1024" height="1024" viewBox="0 0 1024 1024" role="img" aria-label="Local area repeaters official icon">
  <rect x="48" y="48" width="928" height="928" rx="72" fill="none" stroke="#9A9F9B" stroke-width="18"/>

  <!-- distant mountains -->
  <path d="M92 778 L245 590 L334 692 L480 494 L664 748 L774 626 L932 778 Z"
        fill="#062D56"/>
  <path d="M480 494 L414 586 L463 570 L510 622 L544 560 Z"
        fill="#ffffff"/>
  <path d="M774 626 L727 678 L762 668 L800 710 L822 662 Z"
        fill="#ffffff"/>

  <!-- repeater tower -->
  <rect x="176" y="800" width="348" height="56" rx="20" fill="#062D56"/>
  <circle cx="350" cy="252" r="48" fill="#062D56"/>
  <path d="M350 298 L226 800 H474 Z" fill="none" stroke="#062D56" stroke-width="34" stroke-linejoin="round"/>
  <path d="M276 596 H424 M250 696 H450 M304 470 H396" fill="none" stroke="#062D56" stroke-width="28" stroke-linecap="round"/>
  <path d="M260 790 L446 670 M440 790 L254 670 M292 604 L408 486 M408 604 L292 486"
        fill="none" stroke="#062D56" stroke-width="24" stroke-linecap="round"/>

  <!-- radio waves -->
  <path d="M228 224 C180 296 180 398 228 470" fill="none" stroke="#062D56" stroke-width="30" stroke-linecap="round"/>
  <path d="M172 174 C94 286 94 408 172 520" fill="none" stroke="#062D56" stroke-width="30" stroke-linecap="round"/>
  <path d="M472 224 C520 296 520 398 472 470" fill="none" stroke="#062D56" stroke-width="30" stroke-linecap="round"/>
  <path d="M528 174 C606 286 606 408 528 520" fill="none" stroke="#062D56" stroke-width="30" stroke-linecap="round"/>

  <!-- red linked repeater nodes -->
  <g fill="#D71920" stroke="#D71920" stroke-width="26" stroke-linecap="round" stroke-linejoin="round">
    <path d="M614 246 L754 338 L826 256"/>
    <path d="M614 246 L686 444 L826 256"/>
    <path d="M686 444 L832 542 L826 256"/>
    <circle cx="614" cy="246" r="40"/>
    <circle cx="754" cy="338" r="40"/>
    <circle cx="826" cy="256" r="40"/>
    <circle cx="686" cy="444" r="40"/>
    <circle cx="832" cy="542" r="40"/>
  </g>
</svg>
